<svg xmlns="http://www.w3.org/2000/svg" xmlns:xlink="http://www.w3.org/1999/xlink" width="164" zoomAndPan="magnify" viewBox="0 0 123 37.5" height="50" preserveAspectRatio="xMidYMid meet" version="1.0"><defs><g><g id="id1"/></g><clipPath id="id2"><path d="M 2.871094 1.699219 L 36.179688 1.699219 L 36.179688 23 L 2.871094 23 Z M 2.871094 1.699219 " clip-rule="nonzero"/></clipPath><clipPath id="id3"><path d="M 2.871094 17 L 36.179688 17 L 36.179688 35 L 2.871094 35 Z M 2.871094 17 " clip-rule="nonzero"/></clipPath></defs><path fill="rgb(75.689697%, 75.289917%, 75.689697%)" d="M 28.777344 2.335938 L 10.28125 2.335938 L 3.523438 18.355469 L 13.429688 18.355469 L 16.457031 21.429688 L 22.617188 21.429688 L 25.722656 18.355469 L 35.535156 18.355469 L 28.777344 2.335938 " fill-opacity="1" fill-rule="nonzero"/><g clip-path="url(#id2)"><path fill="rgb(0%, 0%, 0%)" d="M 16.714844 20.816406 L 22.363281 20.816406 L 25.289062 17.917969 C 25.402344 17.804688 25.558594 17.742188 25.722656 17.742188 L 34.609375 17.742188 L 28.367188 2.953125 L 10.691406 2.953125 L 4.449219 17.742188 L 13.429688 17.742188 C 13.59375 17.742188 13.75 17.808594 13.867188 17.925781 Z M 22.617188 22.046875 L 16.457031 22.046875 C 16.292969 22.046875 16.132812 21.980469 16.019531 21.863281 L 13.171875 18.972656 L 3.523438 18.972656 C 3.316406 18.972656 3.121094 18.871094 3.007812 18.699219 C 2.894531 18.523438 2.875 18.308594 2.953125 18.117188 L 9.714844 2.097656 C 9.8125 1.867188 10.035156 1.71875 10.28125 1.71875 L 28.777344 1.71875 C 29.023438 1.71875 29.246094 1.867188 29.34375 2.097656 L 36.105469 18.117188 C 36.183594 18.308594 36.164062 18.523438 36.050781 18.699219 C 35.933594 18.871094 35.742188 18.972656 35.535156 18.972656 L 25.976562 18.972656 L 23.050781 21.867188 C 22.933594 21.984375 22.777344 22.046875 22.617188 22.046875 " fill-opacity="1" fill-rule="nonzero"/></g><path fill="rgb(34.899902%, 17.248535%, 84.709167%)" d="M 25.695312 18.351562 L 22.617188 21.429688 L 16.457031 21.429688 L 13.378906 18.351562 L 3.523438 18.351562 L 3.523438 34.367188 L 35.550781 34.367188 L 35.550781 18.351562 L 25.695312 18.351562 " fill-opacity="1" fill-rule="nonzero"/><g clip-path="url(#id3)"><path fill="rgb(0%, 0%, 0%)" d="M 4.136719 33.75 L 34.9375 33.75 L 34.9375 18.964844 L 25.953125 18.964844 L 22.871094 22.046875 L 16.203125 22.046875 L 13.121094 18.964844 L 4.136719 18.964844 Z M 36.167969 34.980469 L 2.90625 34.980469 L 2.90625 18.351562 L 13.632812 17.734375 L 16.710938 20.816406 L 22.359375 20.816406 L 25.441406 17.734375 L 36.152344 18.351562 L 36.167969 34.980469 " fill-opacity="1" fill-rule="nonzero"/></g><path fill="rgb(89.408875%, 89.7995%, 90.589905%)" d="M 25.082031 30.667969 L 13.992188 30.667969 L 13.992188 25.742188 L 25.082031 25.742188 L 25.082031 30.667969 " fill-opacity="1" fill-rule="nonzero"/><path fill="rgb(0%, 0%, 0%)" d="M 14.609375 30.054688 L 24.464844 30.054688 L 24.464844 26.359375 L 14.609375 26.359375 Z M 25.695312 31.285156 L 13.378906 31.285156 L 13.378906 25.125 L 25.695312 25.125 L 25.695312 31.285156 " fill-opacity="1" fill-rule="nonzero"/><path fill="rgb(0%, 0%, 0%)" d="M 31.238281 17.117188 L 30.007812 17.117188 L 30.007812 14.039062 L 9.066406 14.039062 L 9.066406 17.117188 L 7.832031 17.117188 L 7.832031 12.808594 L 31.238281 12.808594 L 31.238281 17.117188 " fill-opacity="1" fill-rule="nonzero"/><path fill="rgb(0%, 0%, 0%)" d="M 28.777344 12.191406 L 27.542969 12.191406 L 27.542969 9.113281 L 11.527344 9.113281 L 11.527344 12.191406 L 10.296875 12.191406 L 10.296875 7.878906 L 28.777344 7.878906 L 28.777344 12.191406 " fill-opacity="1" fill-rule="nonzero"/><path fill="rgb(0%, 0%, 0%)" d="M 26.929688 7.261719 L 25.695312 7.261719 L 25.695312 5.414062 L 13.378906 5.414062 L 13.378906 7.261719 L 12.144531 7.261719 L 12.144531 4.183594 L 26.929688 4.183594 L 26.929688 7.261719 " fill-opacity="1" fill-rule="nonzero"/><g fill="rgb(0%, 0%, 0%)" fill-opacity="1"><g transform="translate(40.907662, 24.054276)"><g><path d="M 8.921875 -17.5625 L 8.921875 -4.953125 C 8.921875 -3.242188 8.445312 -1.9375 7.5 -1.03125 C 6.5625 -0.132812 5.210938 0.3125 3.453125 0.3125 C 2.984375 0.3125 2.519531 0.253906 2.0625 0.140625 C 1.613281 0.0351562 1.234375 -0.0976562 0.921875 -0.265625 C 0.609375 -0.429688 0.328125 -0.597656 0.078125 -0.765625 C -0.171875 -0.929688 -0.351562 -1.070312 -0.46875 -1.1875 L -0.65625 -1.359375 L 0.609375 -4.703125 C 1.453125 -3.910156 2.210938 -3.515625 2.890625 -3.515625 C 3.503906 -3.515625 3.992188 -3.710938 4.359375 -4.109375 C 4.734375 -4.515625 4.921875 -5.140625 4.921875 -5.984375 L 4.921875 -17.5625 Z M 8.921875 -17.5625 "/></g></g></g><g fill="rgb(0%, 0%, 0%)" fill-opacity="1"><g transform="translate(49.823012, 24.054276)"><g><path d="M 2.296875 -1.296875 C 1.085938 -2.378906 0.484375 -3.765625 0.484375 -5.453125 C 0.484375 -7.140625 1.113281 -8.523438 2.375 -9.609375 C 3.644531 -10.691406 5.207031 -11.234375 7.0625 -11.234375 C 8.894531 -11.234375 10.4375 -10.6875 11.6875 -9.59375 C 12.945312 -8.5 13.578125 -7.113281 13.578125 -5.4375 C 13.578125 -3.769531 12.960938 -2.394531 11.734375 -1.3125 C 10.503906 -0.226562 8.945312 0.3125 7.0625 0.3125 C 5.101562 0.3125 3.515625 -0.222656 2.296875 -1.296875 Z M 5.21875 -7.296875 C 4.726562 -6.816406 4.484375 -6.195312 4.484375 -5.4375 C 4.484375 -4.6875 4.71875 -4.070312 5.1875 -3.59375 C 5.65625 -3.125 6.273438 -2.890625 7.046875 -2.890625 C 7.785156 -2.890625 8.390625 -3.128906 8.859375 -3.609375 C 9.335938 -4.097656 9.578125 -4.710938 9.578125 -5.453125 C 9.578125 -6.203125 9.332031 -6.816406 8.84375 -7.296875 C 8.351562 -7.773438 7.753906 -8.015625 7.046875 -8.015625 C 6.316406 -8.015625 5.707031 -7.773438 5.21875 -7.296875 Z M 5.21875 -7.296875 "/></g></g></g><g fill="rgb(0%, 0%, 0%)" fill-opacity="1"><g transform="translate(62.823881, 24.054276)"><g><path d="M 12.515625 -9.546875 C 13.535156 -8.429688 14.046875 -7.0625 14.046875 -5.4375 C 14.046875 -3.820312 13.535156 -2.457031 12.515625 -1.34375 C 11.492188 -0.238281 10.195312 0.3125 8.625 0.3125 C 7.175781 0.3125 5.984375 -0.203125 5.046875 -1.234375 L 5 -1.234375 L 5 0 L 1.28125 0 L 1.28125 -18.296875 L 5.046875 -18.296875 L 5.046875 -9.875 C 5.984375 -10.78125 7.175781 -11.234375 8.625 -11.234375 C 10.195312 -11.234375 11.492188 -10.671875 12.515625 -9.546875 Z M 9.34375 -3.59375 C 9.8125 -4.070312 10.046875 -4.6875 10.046875 -5.4375 C 10.046875 -6.195312 9.800781 -6.816406 9.3125 -7.296875 C 8.820312 -7.773438 8.210938 -8.015625 7.484375 -8.015625 C 6.773438 -8.015625 6.175781 -7.773438 5.6875 -7.296875 C 5.195312 -6.816406 4.953125 -6.203125 4.953125 -5.453125 C 4.953125 -4.710938 5.191406 -4.097656 5.671875 -3.609375 C 6.148438 -3.128906 6.753906 -2.890625 7.484375 -2.890625 C 8.253906 -2.890625 8.875 -3.125 9.34375 -3.59375 Z M 9.34375 -3.59375 "/></g></g></g><g fill="rgb(0%, 0%, 0%)" fill-opacity="1"><g transform="translate(76.292887, 24.054276)"><g><path d="M 5.546875 3.6875 L 4.59375 2.234375 C 4.632812 2.179688 4.691406 2.109375 4.765625 2.015625 C 4.835938 1.929688 4.984375 1.769531 5.203125 1.53125 C 5.429688 1.300781 5.648438 1.097656 5.859375 0.921875 C 6.078125 0.742188 6.328125 0.582031 6.609375 0.4375 C 6.898438 0.300781 7.164062 0.234375 7.40625 0.234375 L 7.40625 0.15625 C 5.332031 -0.25 3.660156 -1.273438 2.390625 -2.921875 C 1.117188 -4.566406 0.484375 -6.523438 0.484375 -8.796875 C 0.484375 -11.347656 1.332031 -13.5 3.03125 -15.25 C 4.738281 -17 6.804688 -17.875 9.234375 -17.875 C 11.671875 -17.875 13.734375 -17 15.421875 -15.25 C 17.117188 -13.5 17.96875 -11.347656 17.96875 -8.796875 C 17.96875 -6.703125 17.40625 -4.859375 16.28125 -3.265625 C 15.15625 -1.679688 13.679688 -0.613281 11.859375 -0.0625 L 11.859375 0.015625 C 11.941406 0.015625 12.316406 0.0820312 12.984375 0.21875 C 13.648438 0.351562 14.179688 0.421875 14.578125 0.421875 C 15.117188 0.421875 15.609375 0.320312 16.046875 0.125 C 16.484375 -0.0625 16.789062 -0.242188 16.96875 -0.421875 L 17.21875 -0.71875 L 18.46875 1.984375 C 18.4375 2.046875 18.390625 2.128906 18.328125 2.234375 C 18.265625 2.347656 18.117188 2.539062 17.890625 2.8125 C 17.671875 3.082031 17.421875 3.320312 17.140625 3.53125 C 16.867188 3.75 16.5 3.941406 16.03125 4.109375 C 15.570312 4.273438 15.082031 4.359375 14.5625 4.359375 C 13.695312 4.359375 12.640625 4.082031 11.390625 3.53125 C 10.140625 2.976562 9.0625 2.703125 8.15625 2.703125 C 7.65625 2.703125 7.1875 2.78125 6.75 2.9375 C 6.320312 3.101562 6.015625 3.273438 5.828125 3.453125 Z M 4.8125 -8.796875 C 4.8125 -8.109375 4.890625 -7.46875 5.046875 -6.875 C 5.203125 -6.289062 5.445312 -5.753906 5.78125 -5.265625 C 6.113281 -4.785156 6.570312 -4.40625 7.15625 -4.125 C 7.75 -3.851562 8.441406 -3.71875 9.234375 -3.71875 C 10.722656 -3.71875 11.828125 -4.203125 12.546875 -5.171875 C 13.273438 -6.140625 13.640625 -7.347656 13.640625 -8.796875 C 13.640625 -10.222656 13.269531 -11.421875 12.53125 -12.390625 C 11.789062 -13.367188 10.691406 -13.859375 9.234375 -13.859375 C 7.785156 -13.859375 6.6875 -13.367188 5.9375 -12.390625 C 5.1875 -11.410156 4.8125 -10.210938 4.8125 -8.796875 Z M 4.8125 -8.796875 "/></g></g></g><g fill="rgb(0%, 0%, 0%)" fill-opacity="1"><g transform="translate(93.677175, 24.054276)"><g><path d="M 4.828125 -10.921875 L 4.828125 -5.71875 C 4.828125 -4.644531 4.988281 -3.878906 5.3125 -3.421875 C 5.644531 -2.972656 6.203125 -2.75 6.984375 -2.75 C 7.765625 -2.75 8.316406 -2.972656 8.640625 -3.421875 C 8.960938 -3.878906 9.125 -4.644531 9.125 -5.71875 L 9.125 -10.921875 L 12.890625 -10.921875 L 12.890625 -4.8125 C 12.890625 -2.988281 12.414062 -1.675781 11.46875 -0.875 C 10.53125 -0.0820312 9.03125 0.3125 6.96875 0.3125 C 4.914062 0.3125 3.414062 -0.0820312 2.46875 -0.875 C 1.53125 -1.675781 1.0625 -2.988281 1.0625 -4.8125 L 1.0625 -10.921875 Z M 4.828125 -10.921875 "/></g></g></g><g fill="rgb(0%, 0%, 0%)" fill-opacity="1"><g transform="translate(106.571661, 24.054276)"><g><path d="M 12.328125 -4.9375 L 4.40625 -4.9375 C 4.40625 -4.164062 4.648438 -3.597656 5.140625 -3.234375 C 5.640625 -2.867188 6.179688 -2.6875 6.765625 -2.6875 C 7.378906 -2.6875 7.863281 -2.765625 8.21875 -2.921875 C 8.570312 -3.085938 8.972656 -3.410156 9.421875 -3.890625 L 12.15625 -2.53125 C 11.019531 -0.632812 9.128906 0.3125 6.484375 0.3125 C 4.835938 0.3125 3.425781 -0.25 2.25 -1.375 C 1.070312 -2.5 0.484375 -3.851562 0.484375 -5.4375 C 0.484375 -7.03125 1.070312 -8.394531 2.25 -9.53125 C 3.425781 -10.664062 4.835938 -11.234375 6.484375 -11.234375 C 8.222656 -11.234375 9.632812 -10.734375 10.71875 -9.734375 C 11.800781 -8.734375 12.34375 -7.304688 12.34375 -5.453125 C 12.34375 -5.191406 12.335938 -5.019531 12.328125 -4.9375 Z M 4.515625 -7.015625 L 8.65625 -7.015625 C 8.570312 -7.585938 8.347656 -8.023438 7.984375 -8.328125 C 7.628906 -8.640625 7.164062 -8.796875 6.59375 -8.796875 C 5.96875 -8.796875 5.46875 -8.628906 5.09375 -8.296875 C 4.726562 -7.972656 4.535156 -7.546875 4.515625 -7.015625 Z M 4.515625 -7.015625 "/></g></g></g></svg>