<svg id="undraw_new_ideas_re_asn4" xmlns="http://www.w3.org/2000/svg" width="845.846" height="526.465" viewBox="0 0 845.846 526.465">
  <path id="Path_738" data-name="Path 738" d="M248.846,45.9v3.18a235.229,235.229,0,0,0-204.275,233.3H43.423V45.9Z" fill="#f2f2f2"/>
  <g id="Group_338" data-name="Group 338">
    <path id="Path_739" data-name="Path 739" d="M418.4,239l28.1-3.192,4.063,15.8-29.827,2.318A9.466,9.466,0,1,1,418.4,239Z" fill="#e3a75a"/>
    <path id="Path_740" data-name="Path 740" d="M432.785,256.068a3.373,3.373,0,0,1-1.327-.141c-1.939-1.362-1.841-16.807-1.8-19.889l0-.314,69.783-12.136,52.482-88.876.029-.03a32.09,32.09,0,1,1,42.206,47.968L509.671,247l-.1.013c-11.795,1.6-67.325,9.052-76.787,9.052Z" fill="#5b3fd8"/>
  </g>
  <g id="Group_339" data-name="Group 339">
    <path id="Path_741" data-name="Path 741" d="M511.783,492.308,499.8,494.836,484.131,448.8l17.682-3.732Z" fill="#e3a75a"/>
    <path id="Path_742" data-name="Path 742" d="M477.66,519.746a5.481,5.481,0,0,0,6.487,4.228l23.82-5.029,2.307-9.352,3.393,8.144,8.989-1.891L513.74,486.1l-3.167.479L497.65,488.5l-4.168.628,1.81,8.573-16.251,17.154a5.472,5.472,0,0,0-1.38,4.892Z" fill="#2f2e41"/>
  </g>
  <g id="Group_340" data-name="Group 340">
    <path id="Path_743" data-name="Path 743" d="M744.324,489.525l2.025,12.077L699.7,515.333l-2.989-17.822Z" fill="#e3a75a"/>
    <path id="Path_744" data-name="Path 744" d="M770.31,524.767a5.481,5.481,0,0,0,4.5-6.3l-4.028-24.009-9.247-2.7,8.279-3.05-1.513-9.06L738.2,487.311l.346,3.184,1.379,12.993.453,4.19,8.641-1.449,16.459,16.954a5.472,5.472,0,0,0,4.83,1.584Z" fill="#2f2e41"/>
  </g>
  <path id="Path_745" data-name="Path 745" d="M567.719,278.74l-2.6,27.175S483.569,287.8,445.194,298.8l-7.338,2.628A19.87,19.87,0,0,0,425.3,314.711l-.034.125h0a26.226,26.226,0,0,0,2.579,19.921L439.5,357.165l40.96,108.253H512.8s-10.47-76.458-21.651-114.858l95.433,29.116s49.432-1.294,40.326-50.468-7.805-57.585-7.805-57.585l-51.383,7.117Z" fill="#2f2e41"/>
  <path id="Path_746" data-name="Path 746" d="M553.744,352.713l27.16,3.9S560.813,450.182,570,488.844l-.348,6.5c1.892,6.146,1.293,19.444,7.433,21.443l.124.04h0c6.658,2.132,19.193,6.1,25.426,2.943l18.544,4.693,102.634-2.531-7.57-28.766s-48.009-4.71-101.877-14.88l37.92-129.176a42.469,42.469,0,0,0-1.964-34.011c-5.954-11.461-18.134-22.089-43.042-18.754-49.815,6.668-58.2,4.969-58.2,4.969l4.66,51.4Z" fill="#2f2e41"/>
  <path id="Path_747" data-name="Path 747" d="M647.676,309.473c-34.993,46.745-55.505,28.756-98.412-6.056,0,0,1.063,13.077-2.271-11.355-1.133-8.3-10.417-26.94-9.841-35.58,2.271-34.066-15.9-41.636-15.9-41.636s-15.9-40.122,9.084-56.019l18.168-30.28-4.921-16.4,38.986-13.12,11.258,15.231a158.978,158.978,0,0,1,30.708,82.894h0a158.982,158.982,0,0,1-.926,32.274l-3.946,30.088c18.363,15.917,27.585,32.581,28.009,49.963Z" fill="#5b3fd8"/>
  <g id="Group_342" data-name="Group 342">
    <path id="Path_748" data-name="Path 748" d="M181.99,158.373l-55.554,24.165A6.829,6.829,0,0,1,117.459,179C100.775,160.731,91.77,139.631,90,115.869a6.829,6.829,0,0,1,3.534-8.976l55.554-24.165a6.829,6.829,0,0,1,8.976,3.534L185.524,149.4a6.829,6.829,0,0,1-3.534,8.976Z" fill="#e6e6e6"/>
    <path id="Path_749" data-name="Path 749" d="M106.244,103.579a17.769,17.769,0,0,0-9.207,23.382l21.7,49.893a6.25,6.25,0,0,0,8.224,3.238l30.722-13.364a30.409,30.409,0,0,0,15.755-40.014l-16.661-38.3a6.25,6.25,0,0,0-8.224-3.238l-42.312,18.405Z" fill="#fff"/>
    <g id="Group_341" data-name="Group 341">
      <path id="Path_750" data-name="Path 750" d="M143.037,109.394l-26.01,11.314a1.3,1.3,0,1,1-1.035-2.378L142,107.015a1.3,1.3,0,0,1,1.035,2.378Z" fill="#e6e6e6"/>
      <path id="Path_751" data-name="Path 751" d="M154.068,134.752l-26.01,11.314a1.3,1.3,0,1,1-1.035-2.378l26.01-11.314a1.3,1.3,0,0,1,1.035,2.378Z" fill="#e6e6e6"/>
      <path id="Path_752" data-name="Path 752" d="M162.513,116.01l-53.924,23.456a1.3,1.3,0,1,1-1.035-2.378l53.924-23.456a1.3,1.3,0,0,1,1.035,2.378Z" fill="#e6e6e6"/>
    </g>
    <path id="Path_753" data-name="Path 753" d="M173.146,138.715l-22.5,9.787a1.3,1.3,0,1,1-1.035-2.378l22.5-9.787a1.3,1.3,0,0,1,1.035,2.378Z" fill="#e6e6e6"/>
  </g>
  <g id="Group_344" data-name="Group 344">
    <path id="Path_754" data-name="Path 754" d="M130.171,335.864H69.588a6.829,6.829,0,0,1-6.821-6.821c-8.01-23.412-7.852-46.353,0-68.85a6.829,6.829,0,0,1,6.821-6.821h60.583a6.829,6.829,0,0,1,6.821,6.821v68.85a6.829,6.829,0,0,1-6.821,6.821Z" fill="#e6e6e6"/>
    <path id="Path_755" data-name="Path 755" d="M82.569,255.4A17.769,17.769,0,0,0,64.8,273.173v54.409a6.25,6.25,0,0,0,6.25,6.25h33.5a30.409,30.409,0,0,0,30.409-30.409V261.653a6.25,6.25,0,0,0-6.25-6.25H82.569Z" fill="#fff"/>
    <g id="Group_343" data-name="Group 343">
      <path id="Path_756" data-name="Path 756" d="M113.988,275.412H85.625a1.3,1.3,0,1,1,0-2.594h28.364a1.3,1.3,0,0,1,0,2.594Z" fill="#e6e6e6"/>
      <path id="Path_757" data-name="Path 757" d="M113.988,303.065H85.625a1.3,1.3,0,1,1,0-2.594h28.364a1.3,1.3,0,0,1,0,2.594Z" fill="#e6e6e6"/>
      <path id="Path_758" data-name="Path 758" d="M129.209,289.248H70.4a1.3,1.3,0,1,1,0-2.594h58.8a1.3,1.3,0,0,1,0,2.594Z" fill="#e6e6e6"/>
    </g>
    <path id="Path_759" data-name="Path 759" d="M129.9,314.309H105.365a1.3,1.3,0,1,1,0-2.594H129.9a1.3,1.3,0,0,1,0,2.594Z" fill="#e6e6e6"/>
  </g>
  <g id="Group_346" data-name="Group 346">
    <path id="Path_760" data-name="Path 760" d="M532.01,447.773l-50.618-22.346a6.237,6.237,0,0,1-3.183-8.216c1.943-22.516,10.537-41.625,25.4-57.526a6.237,6.237,0,0,1,8.216-3.183l50.618,22.346a6.237,6.237,0,0,1,3.183,8.216l-25.4,57.526A6.237,6.237,0,0,1,532.01,447.773Z" fill="#e6e6e6"/>
    <path id="Path_761" data-name="Path 761" d="M521.915,362.988a16.229,16.229,0,0,0-21.4,8.292l-20.069,45.46a5.708,5.708,0,0,0,2.917,7.527l27.992,12.358a27.773,27.773,0,0,0,36.624-14.191l15.407-34.9a5.708,5.708,0,0,0-2.917-7.527l-38.552-17.02Z" fill="#fff"/>
    <g id="Group_345" data-name="Group 345">
      <path id="Path_762" data-name="Path 762" d="M540.787,391.3l-23.7-10.462a1.184,1.184,0,1,1,.957-2.167l23.7,10.462a1.184,1.184,0,0,1-.957,2.167Z" fill="#e6e6e6"/>
      <path id="Path_763" data-name="Path 763" d="M530.587,414.4l-23.7-10.462a1.184,1.184,0,1,1,.957-2.167l23.7,10.462a1.184,1.184,0,0,1-.957,2.167Z" fill="#e6e6e6"/>
      <path id="Path_764" data-name="Path 764" d="M548.4,408.469l-49.133-21.691a1.184,1.184,0,1,1,.957-2.167L549.357,406.3a1.184,1.184,0,0,1-.957,2.167Z" fill="#e6e6e6"/>
    </g>
    <path id="Path_765" data-name="Path 765" d="M539.736,429.665l-20.5-9.051a1.184,1.184,0,1,1,.957-2.167l20.5,9.051a1.184,1.184,0,0,1-.957,2.167Z" fill="#e6e6e6"/>
  </g>
  <g id="Group_348" data-name="Group 348">
    <path id="Path_766" data-name="Path 766" d="M135.144,160.975H74.561a6.829,6.829,0,0,1-6.821-6.821c-8.01-23.412-7.852-46.353,0-68.85a6.829,6.829,0,0,1,6.821-6.821h60.583a6.829,6.829,0,0,1,6.821,6.821v68.85a6.829,6.829,0,0,1-6.821,6.821Z" fill="#3f3d56"/>
    <path id="Path_767" data-name="Path 767" d="M87.542,80.515A17.769,17.769,0,0,0,69.772,98.284v54.409a6.25,6.25,0,0,0,6.25,6.25h33.5a30.409,30.409,0,0,0,30.409-30.409V86.765a6.25,6.25,0,0,0-6.25-6.25H87.542Z" fill="#bb87f2"/>
    <g id="Group_347" data-name="Group 347">
      <path id="Path_768" data-name="Path 768" d="M118.962,100.523H90.6a1.3,1.3,0,1,1,0-2.594h28.364a1.3,1.3,0,0,1,0,2.594Z" fill="#3f3d56"/>
      <path id="Path_769" data-name="Path 769" d="M118.962,128.177H90.6a1.3,1.3,0,1,1,0-2.594h28.364a1.3,1.3,0,0,1,0,2.594Z" fill="#3f3d56"/>
      <path id="Path_770" data-name="Path 770" d="M134.182,114.359h-58.8a1.3,1.3,0,1,1,0-2.594h58.8a1.3,1.3,0,0,1,0,2.594Z" fill="#3f3d56"/>
    </g>
    <path id="Path_771" data-name="Path 771" d="M134.876,139.421H110.338a1.3,1.3,0,1,1,0-2.594h24.537a1.3,1.3,0,0,1,0,2.594Z" fill="#3f3d56"/>
  </g>
  <g id="Group_350" data-name="Group 350">
    <path id="Path_772" data-name="Path 772" d="M488.957,240.349l-44.9,32.333a6.237,6.237,0,0,1-8.7-1.415c-18.432-13.077-30.558-30.165-36.745-51.029a6.237,6.237,0,0,1,1.415-8.7l44.9-32.333a6.237,6.237,0,0,1,8.7,1.415l36.745,51.029a6.237,6.237,0,0,1-1.415,8.7Z" fill="#3f3d56"/>
    <path id="Path_773" data-name="Path 773" d="M410.734,206.12a16.229,16.229,0,0,0-3.687,22.653L436.085,269.1a5.708,5.708,0,0,0,7.968,1.3l24.831-17.88a27.773,27.773,0,0,0,6.309-38.767L452.9,182.791a5.708,5.708,0,0,0-7.968-1.3l-34.2,24.625Z" fill="#bb87f2"/>
    <g id="Group_349" data-name="Group 349">
      <path id="Path_774" data-name="Path 774" d="M444.7,204.18l-21.022,15.138a1.184,1.184,0,1,1-1.384-1.922l21.022-15.138a1.184,1.184,0,0,1,1.384,1.922Z" fill="#3f3d56"/>
      <path id="Path_775" data-name="Path 775" d="M459.459,224.676l-21.022,15.138a1.184,1.184,0,1,1-1.384-1.922l21.022-15.138a1.184,1.184,0,0,1,1.384,1.922Z" fill="#3f3d56"/>
      <path id="Path_776" data-name="Path 776" d="M463.365,206.312,419.781,237.7a1.184,1.184,0,1,1-1.384-1.922l43.584-31.384a1.184,1.184,0,0,1,1.384,1.922Z" fill="#3f3d56"/>
    </g>
    <path id="Path_777" data-name="Path 777" d="M477.254,224.517l-18.186,13.1a1.184,1.184,0,1,1-1.384-1.922l18.186-13.1a1.184,1.184,0,0,1,1.384,1.922Z" fill="#3f3d56"/>
  </g>
  <g id="Group_352" data-name="Group 352">
    <path id="Path_778" data-name="Path 778" d="M206.3,506.225v16.716c0,1.038-3.692,1.882-8.23,1.882a526.281,526.281,0,0,1-83.066,0c-4.538,0-8.23-.844-8.23-1.882V506.225c0-1.038,3.692-1.882,8.23-1.882h83.066c4.538,0,8.23.844,8.23,1.882Z" fill="#e6e6e6"/>
    <path id="Path_779" data-name="Path 779" d="M109.221,519.36c0,2.708,9.6,4.9,21.438,4.9H196.3c4.164,0,7.54-.772,7.54-1.724v-9.244c0-4.634-16.425-8.39-36.687-8.39H116.762c-4.164,0-7.54.772-7.54,1.724V519.36Z" fill="#fff"/>
    <g id="Group_351" data-name="Group 351">
      <path id="Path_780" data-name="Path 780" d="M133.361,510.691v7.826c0,.2-.7.358-1.565.358s-1.564-.161-1.564-.358v-7.826c0-.2.7-.358,1.564-.358S133.361,510.493,133.361,510.691Z" fill="#e6e6e6"/>
      <path id="Path_781" data-name="Path 781" d="M166.725,510.691v7.826c0,.2-.7.358-1.565.358s-1.564-.161-1.564-.358v-7.826c0-.2.7-.358,1.564-.358S166.725,510.493,166.725,510.691Z" fill="#e6e6e6"/>
      <path id="Path_782" data-name="Path 782" d="M150.054,506.491v16.226c0,.2-.7.358-1.565.358s-1.564-.161-1.564-.358V506.491c0-.2.7-.358,1.564-.358S150.054,506.294,150.054,506.491Z" fill="#e6e6e6"/>
    </g>
    <path id="Path_783" data-name="Path 783" d="M180.29,506.3v6.77c0,.2-.7.358-1.565.358s-1.564-.161-1.564-.358V506.3c0-.2.7-.358,1.564-.358s1.565.16,1.565.358Z" fill="#e6e6e6"/>
  </g>
  <g id="Group_354" data-name="Group 354">
    <path id="Path_784" data-name="Path 784" d="M329.3,506.225v16.716c0,1.038-3.692,1.882-8.23,1.882a526.281,526.281,0,0,1-83.066,0c-4.538,0-8.23-.844-8.23-1.882V506.225c0-1.038,3.692-1.882,8.23-1.882h83.066c4.538,0,8.23.844,8.23,1.882Z" fill="#e6e6e6"/>
    <path id="Path_785" data-name="Path 785" d="M232.221,519.36c0,2.708,9.6,4.9,21.438,4.9H319.3c4.164,0,7.54-.772,7.54-1.724v-9.244c0-4.634-16.425-8.39-36.687-8.39H239.762c-4.164,0-7.54.772-7.54,1.724V519.36Z" fill="#f2f2f2"/>
    <g id="Group_353" data-name="Group 353">
      <path id="Path_786" data-name="Path 786" d="M256.361,510.691v7.826c0,.2-.7.358-1.565.358s-1.564-.161-1.564-.358v-7.826c0-.2.7-.358,1.564-.358S256.361,510.493,256.361,510.691Z" fill="#e6e6e6"/>
      <path id="Path_787" data-name="Path 787" d="M289.724,510.691v7.826c0,.2-.7.358-1.565.358s-1.564-.161-1.564-.358v-7.826c0-.2.7-.358,1.564-.358S289.724,510.493,289.724,510.691Z" fill="#e6e6e6"/>
      <path id="Path_788" data-name="Path 788" d="M273.054,506.491v16.226c0,.2-.7.358-1.565.358s-1.564-.161-1.564-.358V506.491c0-.2.7-.358,1.564-.358s1.565.16,1.565.358Z" fill="#e6e6e6"/>
    </g>
    <path id="Path_789" data-name="Path 789" d="M303.29,506.3v6.77c0,.2-.7.358-1.565.358s-1.564-.161-1.564-.358V506.3c0-.2.7-.358,1.564-.358s1.565.16,1.565.358Z" fill="#e6e6e6"/>
  </g>
  <g id="Group_356" data-name="Group 356">
    <path id="Path_790" data-name="Path 790" d="M529.166,288.944V301.6c0,.786-2.795,1.425-6.23,1.425a398.405,398.405,0,0,1-62.882,0c-3.435,0-6.23-.639-6.23-1.425V288.944c0-.786,2.795-1.425,6.23-1.425h62.882c3.435,0,6.23.639,6.23,1.425Z" fill="#e6e6e6"/>
    <path id="Path_791" data-name="Path 791" d="M455.679,298.888c0,2.05,7.266,3.712,16.229,3.712H521.6c3.152,0,5.708-.584,5.708-1.305v-7c0-3.508-12.434-6.352-27.773-6.352H461.387c-3.152,0-5.708.584-5.708,1.305v9.638Z" fill="#f2f2f2"/>
    <g id="Group_355" data-name="Group 355">
      <path id="Path_792" data-name="Path 792" d="M473.953,292.325v5.925c0,.149-.531.271-1.185.271s-1.184-.122-1.184-.271v-5.925c0-.149.531-.271,1.184-.271S473.953,292.175,473.953,292.325Z" fill="#e6e6e6"/>
      <path id="Path_793" data-name="Path 793" d="M499.21,292.325v5.925c0,.149-.531.271-1.185.271s-1.184-.122-1.184-.271v-5.925c0-.149.531-.271,1.184-.271S499.21,292.175,499.21,292.325Z" fill="#e6e6e6"/>
      <path id="Path_794" data-name="Path 794" d="M486.59,289.145v12.283c0,.149-.531.271-1.185.271s-1.184-.122-1.184-.271V289.145c0-.149.531-.271,1.184-.271S486.59,289,486.59,289.145Z" fill="#e6e6e6"/>
    </g>
    <path id="Path_795" data-name="Path 795" d="M509.479,289v5.125c0,.149-.531.271-1.185.271s-1.184-.122-1.184-.271V289c0-.149.531-.271,1.184-.271S509.479,288.851,509.479,289Z" fill="#e6e6e6"/>
  </g>
  <g id="Group_357" data-name="Group 357">
    <path id="Path_796" data-name="Path 796" d="M507.707,346.772l20.473-19.507,12.775,10.141L518.576,357.26a9.466,9.466,0,1,1-10.869-10.488Z" fill="#e3a75a"/>
    <path id="Path_797" data-name="Path 797" d="M529.478,351.7a3.372,3.372,0,0,1-1.143.689c-2.369.085-11.613-12.287-13.443-14.769l-.186-.253,48.306-51.8L551.2,183.03l0-.042a32.09,32.09,0,1,1,62.605,12.762L585.3,298.059l-.071.07c-8.438,8.394-48.209,47.859-55.752,53.571Z" fill="#5b3fd8"/>
  </g>
  <rect id="Rectangle_1138" data-name="Rectangle 1138" width="845.846" height="2" transform="translate(0 523.343)" fill="#ccc"/>
  <circle id="Ellipse_7" data-name="Ellipse 7" cx="9.117" cy="9.117" r="9.117" transform="translate(97.994 67.712)" fill="#3f3d56"/>
  <circle id="Ellipse_8" data-name="Ellipse 8" cx="9.117" cy="9.117" r="9.117" transform="translate(91.363 244.258)" fill="#f2f2f2"/>
  <circle id="Ellipse_9" data-name="Ellipse 9" cx="11" cy="11" r="11" transform="translate(264.846 110.343)" fill="#f2f2f2"/>
  <g id="Group_358" data-name="Group 358">
    <path id="Path_798" data-name="Path 798" d="M397.074,177.4a48.472,48.472,0,0,0-11.962-27.747,47.8,47.8,0,0,0-42.124-15.364c-1.323.189-1.288,2.29.049,2.1a46.323,46.323,0,0,1,27.588,4.642,45.714,45.714,0,0,1,24.349,36.418c.117,1.342,2.217,1.3,2.1-.049h0Z" fill="#e6e6e6"/>
    <path id="Path_799" data-name="Path 799" d="M345.317,125.863l-16.162,7.974a1.055,1.055,0,0,0-.185,1.66l15.3,12.648c1.036.856,2.493-.656,1.449-1.519l-15.3-12.648-.185,1.66,16.162-7.974c1.214-.6.124-2.4-1.08-1.8h0Z" fill="#e6e6e6"/>
  </g>
  <g id="Group_359" data-name="Group 359">
    <path id="Path_800" data-name="Path 800" d="M168.221,274.574a48.472,48.472,0,0,0,22.537-20.125,47.8,47.8,0,0,0,1.248-44.821c-.6-1.2-2.58-.5-1.976.711a46.322,46.322,0,0,1,4.324,27.64A45.714,45.714,0,0,1,167.51,272.6c-1.236.536-.532,2.515.711,1.976h0Z" fill="#e6e6e6"/>
    <path id="Path_801" data-name="Path 801" d="M200.737,209.17l-12.678-12.81a1.055,1.055,0,0,0-1.634.35l-7.158,18.516c-.484,1.253,1.412,2.157,1.9.894l7.158-18.516-1.634.35,12.678,12.81c.952.962,2.312-.64,1.367-1.594h0Z" fill="#e6e6e6"/>
  </g>
  <path id="Path_802" data-name="Path 802" d="M520.67,80.663c.16-3.011-1.445,15.538,1.311,15.234C534.533,94.5,553,97.952,562.3,99.407c.373-.133.747-.265,1.106-.406.891-.31,1.749-.659,2.591-1.028,18.974-8.3,19.617-40.516,19.553-40.795-.314-1.37-12.226-38.235-17.532-37.605a39.16,39.16,0,0,0-4.147.716l-12.851,2.946a61.272,61.272,0,0,0-8.335.68l-.023.005c-26.322,3.96-43.106,24.4-36.8,43.154.016.02.044.037.06.056.742.7,1.406,1.366,2.005,2.013.578.606,1.081,1.194,1.531,1.759,3.481,4.359-1.167,11.914,3.116,12.144,5.7.305-5.7,54.584,18.983,50.209-20.141-6.981-11.325-44.288-10.885-52.593Z" fill="#2f2e41"/>
  <circle id="Ellipse_10" data-name="Ellipse 10" cx="31.215" cy="31.215" r="31.215" transform="translate(512.342 43.247)" fill="#e3a75a"/>
  <path id="Path_803" data-name="Path 803" d="M593.928,63.444c-.129,2.907-9.058,28.766-21.2,28.766-2.271,0-5.3-11.355-7.57-21.953-.192-.9,3.5,67.283,2.612,67.594.416-10.061-13.164-43.46-12.6-50.258,2.029-24.4-5.309-21.735-17.33-26.269l0,.167a16.743,16.743,0,0,1-5-9.523,28.874,28.874,0,0,0,.008,10.666c-2.18,4.845-6.253,7.214-11.726,7.759-.78-2.922-2.347-6.049-3.785-6.662a21.342,21.342,0,0,1-.151,6.76c-2.324-.091-4.618,5.609-7.29,5.064-.583-.106.129,9.622-.462,9.485-.56-.129-1.113-.257-1.688-.409-.121-.537-3.815-1.718-3.906-2.263-2.733-15.64-2.967-43.112,12.612-47.336.409-.121.825-.227,1.242-.318L541.089,29.1a5.334,5.334,0,0,1,.371-3.475,5.22,5.22,0,0,1,1.2-1.688c.008-.008.008-.015.015-.023a5.53,5.53,0,0,1,2.551-1.363c.159-.038.333-.068.5-.1a64.21,64.21,0,0,1,7.381-.553c1.2-.023,2.392-.008,3.581.038.1,0,.182,0,.273.008a63.022,63.022,0,0,1,11.5,1.544,35.778,35.778,0,0,1,16.548,11.378,34.912,34.912,0,0,1,7,14.345c.522,6.707,2.415,2.808,1.915,14.232Z" fill="#2f2e41"/>
  <path id="Path_804" data-name="Path 804" d="M595.5,40.18a15.524,15.524,0,0,0-3.387-3.793,10.748,10.748,0,0,0,1.366-.8c3.815-2.66,4.9-8.48-1.981-11.61-3.182-1.447-5.18-5.311-8.141-7.963,0,0-9.569-8.138-9.3-7.526-2.679-2.55-3.483-5.709-5.531-8.493a17.571,17.571,0,0,0,1.914,10.865,10.4,10.4,0,0,1-4.625-1.173c-7.161-5.067-12.456-3.773-18.762,1.7-4.113,3.569-6.612,6.946-5,11.512.887,2.511,2.712,4.185,5.633,5.277,3.1,1.158,9.234,2.921,12.469,1.929l18.311,7.264a27.011,27.011,0,0,0,4.854.6,22.5,22.5,0,0,1,8.9,5.3c2.635,2.7,3.274,5.939,5.209,8.855A17.366,17.366,0,0,0,595.5,40.18Z" fill="#2f2e41"/>
</svg>
